<svg width="12" height="12" viewBox="0 0 12 12" fill="none" xmlns="http://www.w3.org/2000/svg">
<path d="M0.424221 6.42704C0.187864 6.42704 0 6.23318 0 5.99695C0 5.76072 0.187864 5.57296 0.424221 5.57296H5.56948V0.430098C5.56986 0.193868 5.76383 0 6.00019 0C6.23655 0 6.42441 0.193868 6.42441 0.430098V5.57296H11.5697C11.806 5.57296 12 5.76072 12 5.99695C12 6.23318 11.806 6.42704 11.5697 6.42704H6.42441V11.5699C6.42441 11.8061 6.23655 12 6.00019 12C5.76383 12 5.56986 11.8061 5.56986 11.5699V6.42704H0.424221Z" fill="white"/>
</svg>
