<svg width="10" height="10" viewBox="0 0 10 10" fill="none" xmlns="http://www.w3.org/2000/svg">
<mask id="path-1-inside-1" fill="white">
<path d="M0.755344 1.3593C0.588214 1.19217 0.59246 0.922246 0.7595 0.755207C0.926539 0.588167 1.19215 0.588239 1.35928 0.755369L4.99752 4.39362L8.63407 0.757066C8.80138 0.590297 9.07563 0.590371 9.24276 0.757501C9.40989 0.92463 9.40564 1.19456 9.2386 1.3616L5.60205 4.99814L9.2403 8.63639C9.40743 8.80352 9.41182 9.07345 9.24478 9.24049C9.07774 9.40753 8.8035 9.40745 8.63637 9.24032L4.99812 5.60208L1.36157 9.23863C1.19453 9.40567 0.924606 9.40991 0.757476 9.24278C0.590346 9.07565 0.590272 8.80141 0.757311 8.63437L4.39386 4.99782L0.755344 1.3593Z"/>
</mask>
<path d="M0.755344 1.3593C0.588214 1.19217 0.59246 0.922246 0.7595 0.755207C0.926539 0.588167 1.19215 0.588239 1.35928 0.755369L4.99752 4.39362L8.63407 0.757066C8.80138 0.590297 9.07563 0.590371 9.24276 0.757501C9.40989 0.92463 9.40564 1.19456 9.2386 1.3616L5.60205 4.99814L9.2403 8.63639C9.40743 8.80352 9.41182 9.07345 9.24478 9.24049C9.07774 9.40753 8.8035 9.40745 8.63637 9.24032L4.99812 5.60208L1.36157 9.23863C1.19453 9.40567 0.924606 9.40991 0.757476 9.24278C0.590346 9.07565 0.590272 8.80141 0.757311 8.63437L4.39386 4.99782L0.755344 1.3593Z" fill="white"/>
<path d="M0.755344 1.3593L1.46245 0.652195L0.755344 1.3593ZM1.35928 0.755369L0.65217 1.46248L0.65217 1.46248L1.35928 0.755369ZM4.99752 4.39362L4.29042 5.10072L4.99752 5.80783L5.70463 5.10072L4.99752 4.39362ZM8.63407 0.757066L7.92811 0.0488163L7.92697 0.0499593L8.63407 0.757066ZM9.2386 1.3616L9.94571 2.0687L9.94571 2.0687L9.2386 1.3616ZM5.60205 4.99814L4.89495 4.29104L4.18784 4.99814L4.89495 5.70525L5.60205 4.99814ZM9.2403 8.63639L8.53319 9.3435L8.53319 9.3435L9.2403 8.63639ZM4.99812 5.60208L5.70523 4.89497L4.99812 4.18786L4.29101 4.89497L4.99812 5.60208ZM1.36157 9.23863L0.654464 8.53152L0.654464 8.53152L1.36157 9.23863ZM0.757311 8.63437L0.0502047 7.92726L0.0502047 7.92726L0.757311 8.63437ZM4.39386 4.99782L5.10097 5.70492L5.80807 4.99782L5.10097 4.29071L4.39386 4.99782ZM1.46245 0.652195C1.6986 0.888343 1.67721 1.25171 1.46661 1.46231L0.0523929 0.0481C-0.492294 0.592786 -0.522171 1.496 0.0482375 2.06641L1.46245 0.652195ZM1.46661 1.46231C1.24276 1.68616 0.875204 1.68551 0.65217 1.46248L2.06638 0.0482622C1.50909 -0.509031 0.610317 -0.509824 0.0523929 0.0481L1.46661 1.46231ZM0.65217 1.46248L4.29042 5.10072L5.70463 3.68651L2.06638 0.0482621L0.65217 1.46248ZM5.70463 5.10072L9.34118 1.46417L7.92697 0.0499593L4.29042 3.68651L5.70463 5.10072ZM9.34004 1.46531C9.11695 1.68768 8.75891 1.68786 8.53565 1.46461L9.94986 0.0503939C9.39235 -0.507123 8.48582 -0.507091 7.92811 0.0488173L9.34004 1.46531ZM8.53565 1.46461C8.2995 1.22846 8.32089 0.865097 8.53149 0.654489L9.94571 2.0687C10.4904 1.52402 10.5203 0.620801 9.94986 0.0503939L8.53565 1.46461ZM8.53149 0.654489L4.89495 4.29104L6.30916 5.70525L9.94571 2.0687L8.53149 0.654489ZM4.89495 5.70525L8.53319 9.3435L9.94741 7.92928L6.30916 4.29104L4.89495 5.70525ZM8.53319 9.3435C8.3234 9.13371 8.30072 8.77033 8.53767 8.53338L9.95189 9.94759C10.5229 9.37656 10.4915 8.47333 9.94741 7.92928L8.53319 9.3435ZM8.53767 8.53338C8.76152 8.30954 9.12044 8.31018 9.34347 8.53322L7.92926 9.94743C8.48656 10.5047 9.39397 10.5055 9.95189 9.94759L8.53767 8.53338ZM9.34347 8.53322L5.70523 4.89497L4.29101 6.30918L7.92926 9.94743L9.34347 8.53322ZM4.29101 4.89497L0.654464 8.53152L2.06868 9.94573L5.70523 6.30918L4.29101 4.89497ZM0.654464 8.53152C0.865073 8.32091 1.22843 8.29953 1.46458 8.53567L0.0503689 9.94989C0.620776 10.5203 1.52399 10.4904 2.06868 9.94573L0.654464 8.53152ZM1.46458 8.53567C1.68762 8.75871 1.68826 9.11763 1.46442 9.34147L0.0502047 7.92726C-0.507719 8.48518 -0.506925 9.39259 0.0503689 9.94989L1.46458 8.53567ZM1.46442 9.34147L5.10097 5.70492L3.68675 4.29071L0.0502047 7.92726L1.46442 9.34147ZM5.10097 4.29071L1.46245 0.652195L0.0482375 2.06641L3.68675 5.70492L5.10097 4.29071Z" fill="black" mask="url(#path-1-inside-1)"/>
</svg>
