<svg width="9" height="8" viewBox="0 0 9 8" fill="none" xmlns="http://www.w3.org/2000/svg">
<path fill-rule="evenodd" clip-rule="evenodd" d="M8.36878 0.0952381C8.4095 0.0317459 8.4638 0 8.53168 0C8.59955 0 8.65385 0.0317459 8.69457 0.0952381L8.93892 0.357143C8.97964 0.420635 9 0.492064 9 0.571429C9 0.650793 8.97964 0.714286 8.93892 0.761905L2.83032 7.90476C2.77602 7.96825 2.71833 8 2.65724 8C2.59615 8 2.53846 7.96825 2.48416 7.90476L0.061086 5.07143C0.020362 5.02381 0 4.96032 0 4.88095C0 4.80159 0.020362 4.73016 0.061086 4.66667L0.30543 4.40476C0.346154 4.34127 0.400453 4.30952 0.468326 4.30952C0.536199 4.30952 0.590498 4.34127 0.631222 4.40476L2.64706 6.7619L8.36878 0.0952381Z" fill="white"/>
</svg>
