<svg width="12" height="14" viewBox="0 0 12 14" fill="none" xmlns="http://www.w3.org/2000/svg">
<path d="M11.9828 6.01185C11.9712 5.98054 11.9545 5.95228 11.9336 5.92861L9.21683 2.87457C9.1283 2.77504 8.9852 2.77504 8.89667 2.87457C8.80814 2.9741 8.80814 3.13497 8.89667 3.2345L11.2272 5.85454H6.3397C6.21449 5.85454 6.11328 5.96832 6.11328 6.10908C6.11328 6.24985 6.21449 6.36363 6.3397 6.36363H11.2272L8.89667 8.98366C8.80814 9.08319 8.80814 9.24406 8.89667 9.34359C8.94082 9.39323 8.99878 9.41817 9.05675 9.41817C9.11471 9.41817 9.17267 9.39323 9.21683 9.34359L11.9336 6.2893C11.9547 6.26588 11.9712 6.23763 11.9828 6.20632C12.0056 6.14421 12.0056 6.07395 11.9828 6.01185Z" fill="white"/>
<path d="M7.92472 7.38182C7.7995 7.38182 7.69829 7.4956 7.69829 7.63636V11.7091H5.43409V2.03636C5.43409 1.92538 5.37024 1.82738 5.27628 1.79378L1.68479 0.509091H7.69829V4.58182C7.69829 4.72258 7.7995 4.83636 7.92472 4.83636C8.04993 4.83636 8.15114 4.72258 8.15114 4.58182V0.254545C8.15114 0.113782 8.04993 0 7.92472 0H0.22642C0.219175 0 0.212835 0.00381818 0.205816 0.00458182C0.193137 0.00585455 0.182042 0.00916364 0.170042 0.0127273C0.148758 0.0190909 0.129739 0.0277455 0.111399 0.0402182C0.105512 0.0442909 0.0984929 0.0442909 0.0928324 0.0488727C0.0858133 0.0547273 0.0803792 0.0621091 0.0740395 0.0684727C0.0701903 0.0725455 0.0661147 0.0761091 0.062492 0.0804364C0.0452841 0.101309 0.031246 0.124473 0.0208307 0.149927C0.0187929 0.155018 0.0176608 0.160109 0.0158494 0.1652C0.00633976 0.193709 0 0.223491 0 0.254545V11.9636C0 11.9955 0.00656617 12.0255 0.0163023 12.054C0.0194721 12.0634 0.024227 12.0713 0.0283026 12.0802C0.0366801 12.0983 0.0461898 12.1148 0.05819 12.1301C0.0647562 12.1383 0.0713224 12.1456 0.0785679 12.153C0.0917003 12.166 0.106418 12.1767 0.122267 12.1861C0.130645 12.1912 0.138343 12.1965 0.1474 12.2004C0.151249 12.2019 0.154192 12.2049 0.158041 12.2065L5.13929 13.9883C5.16148 13.9959 5.18458 14 5.20767 14C5.25522 14 5.30209 13.9832 5.34126 13.9511C5.39967 13.9033 5.43409 13.8269 5.43409 13.7455V12.2182H7.92472C8.04993 12.2182 8.15114 12.1044 8.15114 11.9636V7.63636C8.15114 7.4956 8.0497 7.38182 7.92472 7.38182Z" fill="white"/>
</svg>
