<svg width="14" height="10" viewBox="0 0 14 10" fill="none" xmlns="http://www.w3.org/2000/svg">
<g opacity="0.8">
<path fill-rule="evenodd" clip-rule="evenodd" d="M9.98911 0.639999C9.04356 0.213329 8.04721 0 7 0C5.95279 0 4.95644 0.213329 4.01089 0.639999C3.09586 1.056 2.29013 1.64266 1.59369 2.4C0.897232 3.15734 0.366013 4.02666 0 5.008C0.366013 5.98934 0.897232 6.856 1.59369 7.608C2.29013 8.36 3.09586 8.944 4.01089 9.36C4.95644 9.78667 5.95279 10 7 10C8.04721 10 9.04356 9.78667 9.98911 9.36C10.9041 8.944 11.7099 8.36 12.4063 7.608C13.1028 6.856 13.634 5.98934 14 5.008C13.634 4.02666 13.1028 3.15734 12.4063 2.4C11.7099 1.64266 10.9041 1.056 9.98911 0.639999ZM8.60129 7.904C8.11327 8.20267 7.57951 8.352 6.99998 8.352C6.42046 8.352 5.8867 8.20267 5.39868 7.904C4.91066 7.60533 4.52432 7.2 4.23964 6.688C3.95496 6.176 3.81262 5.616 3.81262 5.008C3.81262 4.4 3.95496 3.84 4.23964 3.328C4.52432 2.816 4.91066 2.41067 5.39868 2.112C5.8867 1.81333 6.42046 1.664 6.99998 1.664C7.57951 1.664 8.11327 1.81333 8.60129 2.112C9.08931 2.41067 9.47566 2.816 9.76033 3.328C10.045 3.84 10.1873 4.4 10.1873 5.008C10.1873 5.616 10.045 6.176 9.76033 6.688C9.47566 7.2 9.08931 7.60533 8.60129 7.904Z" fill="#29273B"/>
<path fill-rule="evenodd" clip-rule="evenodd" d="M6.99999 3.008C7.33551 3.008 7.65068 3.09867 7.94553 3.28C8.24037 3.46133 8.47421 3.70666 8.64705 4.016C8.81989 4.32533 8.90631 4.656 8.90631 5.008C8.90631 5.36 8.81989 5.69066 8.64705 6C8.47421 6.30933 8.24037 6.55467 7.94553 6.736C7.65068 6.91733 7.33551 7.008 6.99999 7.008C6.66448 7.008 6.3493 6.91733 6.05446 6.736C5.75961 6.55467 5.52577 6.30933 5.35293 6C5.18009 5.69066 5.09367 5.36 5.09367 5.008C5.09367 4.656 5.18009 4.32533 5.35293 4.016C5.52577 3.70666 5.75961 3.46133 6.05446 3.28C6.3493 3.09867 6.66448 3.008 6.99999 3.008Z" fill="#29273B"/>
</g>
</svg>
