<svg width="10" height="16" viewBox="0 0 10 16" fill="none" xmlns="http://www.w3.org/2000/svg">
<path d="M0.330058 8.70316L8.10763 15.7032C8.32757 15.9011 8.5877 16 8.88881 16C9.18993 16 9.45024 15.9011 9.67018 15.7032C9.89012 15.5052 10 15.2709 10 15.0001L10 1.00014C10 0.72935 9.89012 0.494899 9.67018 0.29706C9.45 0.0991116 9.18969 7.08398e-08 8.88881 9.71429e-08C8.58788 1.23451e-07 8.32757 0.0991117 8.10763 0.29706L0.330058 7.29706C0.110302 7.49479 -7.23053e-07 7.72924 -6.9937e-07 8.00014C-6.75697e-07 8.27093 0.110241 8.50522 0.330058 8.70316Z" fill="#424652"/>
</svg>
