<svg width="14" height="19" viewBox="0 0 14 19" fill="none" xmlns="http://www.w3.org/2000/svg">
<path fill-rule="evenodd" clip-rule="evenodd" d="M12.0003 6.67995C12.4536 6.67995 12.847 6.83995 13.1803 7.15994C13.5136 7.47995 13.6803 7.86661 13.6803 8.31995V16.6799C13.6803 17.1333 13.5136 17.5199 13.1803 17.84C12.847 18.1599 12.4536 18.3199 12.0003 18.3199H2.00031C1.54698 18.3199 1.15364 18.1599 0.820312 17.84C0.486984 17.5199 0.320312 17.1333 0.320312 16.6799V8.31995C0.320312 7.86661 0.486984 7.47995 0.820312 7.15994C1.15364 6.83995 1.54698 6.67995 2.00031 6.67995H2.82031V4.99994C2.82031 4.23994 3.00697 3.53995 3.38031 2.89995C3.75365 2.25995 4.26031 1.75328 4.90031 1.37994C5.54031 1.00661 6.24031 0.819946 7.00031 0.819946C7.76031 0.819946 8.46031 1.00661 9.10031 1.37994C9.74031 1.75328 10.247 2.25995 10.6203 2.89995C10.9937 3.53995 11.1803 4.23994 11.1803 4.99994V6.67995H12.0003ZM9.58032 6.67995V4.99995C9.58032 4.54662 9.46365 4.11995 9.23032 3.71996C8.99698 3.31995 8.68033 3.00328 8.28032 2.76996C7.88031 2.53662 7.45366 2.41995 7.00032 2.41995C6.54698 2.41995 6.12032 2.53662 5.72032 2.76996C5.32031 3.00328 5.00365 3.31995 4.77032 3.71996C4.53699 4.11995 4.42032 4.54662 4.42032 4.99995V6.67995H9.58032ZM8.18031 13.6799C7.84698 14.0133 7.45364 14.1799 7.00031 14.1799C6.54698 14.1799 6.15364 14.0133 5.82031 13.6799C5.48698 13.3466 5.32031 12.9533 5.32031 12.4999C5.32031 12.0466 5.48698 11.6533 5.82031 11.3199C6.15364 10.9866 6.54698 10.8199 7.00031 10.8199C7.45364 10.8199 7.84698 10.9866 8.18031 11.3199C8.51364 11.6533 8.68031 12.0466 8.68031 12.4999C8.68031 12.9533 8.51364 13.3466 8.18031 13.6799Z" fill="#E35205"/>
</svg>
