<svg width="24" height="20" viewBox="0 0 24 20" fill="none" xmlns="http://www.w3.org/2000/svg">
<path d="M22.3094 3.04842H17.8289V0.510744C17.8289 0.228722 17.601 0 17.32 0H6.68C6.39899 0 6.17108 0.228722 6.17108 0.510744V3.04847H1.69059C0.758389 3.04842 0 3.80958 0 4.74512V12.8759C0 13.8114 0.758389 14.5726 1.69059 14.5726H6.17108V19.4892C6.17108 19.7713 6.39899 20 6.68 20H17.32C17.601 20 17.8289 19.7713 17.8289 19.4892V14.5726H22.3094C23.2416 14.5726 24 13.8114 24 12.8759V4.74512C24 3.80958 23.2415 3.04842 22.3094 3.04842ZM17.8288 4.06986H19.0427V5.49926H17.8288V4.06986ZM7.18888 1.02149H16.811V5.49931H7.18888V1.02149ZM4.95716 4.06991H6.17108V5.49931H4.95716V4.06991ZM16.8111 18.9785H7.18888V12.2524H16.811V18.9785H16.8111ZM22.9822 12.8759H22.9822C22.9822 13.2482 22.6803 13.5511 22.3094 13.5511H17.8289V12.2524H18.7572C19.0382 12.2524 19.2661 12.0237 19.2661 11.7417C19.2661 11.4596 19.0382 11.2309 18.7572 11.2309H17.32H6.68H5.24277C4.96176 11.2309 4.73385 11.4596 4.73385 11.7417C4.73385 12.0237 4.96176 12.2524 5.24277 12.2524H6.17113V13.5511H1.69059C1.31967 13.5511 1.01784 13.2482 1.01784 12.8759V4.74512C1.01784 4.37282 1.31967 4.06986 1.69059 4.06986H3.93937V6.00996C3.93937 6.29198 4.16723 6.5207 4.44829 6.5207H19.5517C19.8327 6.5207 20.0606 6.29198 20.0606 6.00996V4.06986H22.3094C22.6803 4.06986 22.9822 4.37277 22.9822 4.74512V12.8759Z" fill="#424652"/>
</svg>
