<svg width="14" height="14" viewBox="0 0 14 14" fill="none" xmlns="http://www.w3.org/2000/svg">
<path opacity="0.4" d="M13.8789 13.286L10.4759 9.88381C11.3888 8.83459 11.9415 7.46563 11.9415 5.9694C11.9415 2.67583 9.26192 0 5.97073 0C2.67642 0 0 2.67894 0 5.9694C0 9.25987 2.67953 11.9388 5.97073 11.9388C7.46729 11.9388 8.83655 11.3863 9.88601 10.4736L13.289 13.8758C13.3697 13.9565 13.4784 14 13.5839 14C13.6895 14 13.7982 13.9596 13.8789 13.8758C14.0404 13.7144 14.0404 13.4475 13.8789 13.286ZM0.835218 5.9694C0.835218 3.13836 3.13906 0.838138 5.96762 0.838138C8.79929 0.838138 11.1 3.14146 11.1 5.9694C11.1 8.79734 8.79929 11.1038 5.96762 11.1038C3.13906 11.1038 0.835218 8.80044 0.835218 5.9694Z" fill="black"/>
</svg>
